# xmcd
#
# Track frame offsets: 
#        150
#        11021
#        18486
#        36500
#        56319
#        73910
#        90933
#        112893
#        128927
#        153592
#
# Disc length: 2260 seconds
#
# Revision: 0
# Processed by: cddbd v1.5.2PL0 Copyright (c) Steve Scherf et al.
# Submitted via: ExactAudioCopy v1.3
#
DISCID=7d08d20a
DTITLE=Shelby Lynne - Tears, Lies and Alibis
DYEAR=2010
DGENRE=Folk
TTITLE0=Rains Came
TTITLE1=Why Didn't You Call Me
TTITLE2=Like a Fool
TTITLE3=Alibi
TTITLE4=Something to Be Said About Airstreams
TTITLE5=Family Tree
TTITLE6=Loser Dreamer
TTITLE7=Old #7
TTITLE8=Old Dog
TTITLE9=Home Sweet Home
EXTD=
EXTT0=
EXTT1=
EXTT2=
EXTT3=
EXTT4=
EXTT5=
EXTT6=
EXTT7=
EXTT8=
EXTT9=
PLAYORDER=
